<svg xmlns="http://www.w3.org/2000/svg" width="210mm" height="297mm" viewBox="0 0 744.09448819 1052.3622047"><defs><filter id="a" x="-.125" width="1.25" y="-.079" height="1.159" color-interpolation-filters="sRGB"><feGaussianBlur stdDeviation="23.324"/></filter></defs><g stroke="#fff"><path d="M537.505 161.092l8.227 60.332-150.83 290.691L227.616 736.99l-43.878 85.013-46.62 41.136-38.394 2.742 52.105-71.302 98.726-191.965z" fill="#6c5353" stroke-width=".5" filter="url(#a)"/><path d="M145.714 718.789s23.722 1.096 31.733 6.633c8.012 5.537 15.353 16.454 15.353 16.454L434.286 367.36l111.428-205.714c-6.886-32.854-28.244-36.226-54.285-28.571L354.083 336.237z" fill="#6c5353" stroke-width=".5"/><path d="M185.324 780.386c-18.294 59.898-49.144 74.742-100.094 88.84 0 0 18.8-18.87 22.085-37.096 3.284-18.225-20.118-32.492-11.662-64 8.456-31.51 29.716-39.29 46.698-37.897 31.46 2.579 48.225 13.632 42.973 50.153z" fill="#672a27" stroke-width=".505"/></g></svg>